<?xml version="1.0" standalone="no"?><!DOCTYPE svg PUBLIC "-//W3C//DTD SVG 1.1//EN" "http://www.w3.org/Graphics/SVG/1.1/DTD/svg11.dtd"><svg t="1567448672556" class="icon" viewBox="0 0 1491 1024" version="1.1" xmlns="http://www.w3.org/2000/svg" p-id="14192" xmlns:xlink="http://www.w3.org/1999/xlink" width="72.802734375" height="50"><defs><style type="text/css"></style></defs><path d="M403.432192 233.472c-9.216-7.68-18.432-13.824-29.184-18.432-7.68-4.608-16.896-1.536-21.504 4.608L290.280192 303.616l-4.608 6.144c-6.144 9.216-18.432 13.824-29.184 13.824h-12.288c-32.256 1.536-62.976 16.896-82.944 44.544-15.36 21.504-24.576 47.616-23.04 73.728 0 4.608 3.072 9.216 7.68 10.752 9.216 4.608 15.36 12.288 16.896 23.04 3.072 15.36-6.144 29.184-21.504 33.792-15.36 4.608-32.256-4.608-36.864-19.968v-1.536c-1.536-9.216 0-18.432 6.144-24.576 3.072-3.072 4.608-9.216 4.608-13.824-3.072-32.256 6.144-67.584 27.648-95.232 27.648-35.328 67.584-55.296 108.544-55.296 7.68 0 15.36-4.608 19.968-10.752l58.368-76.8c4.608-6.144 1.536-15.36-6.144-16.896-98.304-29.184-206.848 3.072-271.36 89.088-84.48 110.08-64.512 269.824 46.08 353.792 10.752 7.68 21.504 15.36 32.256 21.504 7.68 4.608 16.896 1.536 21.504-4.608l62.976-84.48 4.608-6.144c6.144-9.216 18.432-13.824 29.184-13.824H261.096192c32.256-1.536 62.976-16.896 82.944-44.544 15.36-21.504 24.576-47.616 23.04-73.728 0-4.608-3.072-9.216-7.68-10.752-9.216-4.608-15.36-12.288-16.896-23.04-3.072-15.36 6.144-29.184 21.504-33.792 15.36-4.608 32.256 4.608 36.864 19.968v1.536c1.536 9.216 0 18.432-6.144 24.576-3.072 3.072-4.608 9.216-4.608 13.824 3.072 32.256-6.144 67.584-27.648 95.232-27.648 35.328-67.584 55.296-108.544 55.296-7.68 0-15.36 4.608-19.968 10.752l-58.368 76.8c-4.608 6.144-1.536 15.36 6.144 16.896 98.304 29.184 208.384-4.608 272.896-90.624 82.432-113.152 59.392-270.848-51.2-354.816zM820.712192 302.08v-6.144c0-4.608-3.072-7.68-7.68-7.68H614.888192c-4.608 0-7.68 3.072-7.68 7.68v12.288c0 4.608 3.072 7.68 7.68 7.68h166.912c4.608 0 7.68 3.072 7.68 7.68v1.536c-4.608 30.72-19.968 89.088-66.048 145.408-1.536 3.072-6.144 3.072-9.216 0l-1.536-1.536c-38.4-49.152-50.688-99.84-53.76-117.76 0-4.608-4.608-6.144-9.216-6.144h-12.288c-4.608 0-7.68 4.608-7.68 9.216 4.608 21.504 18.432 79.872 62.976 134.656 3.072 3.072 3.072 7.68 0 10.752-55.296 50.688-104.448 61.44-122.368 64.512-4.608 0-6.144 4.608-6.144 7.68v12.288c0 4.608 4.608 7.68 9.216 7.68 21.504-3.072 76.8-13.824 139.264-72.192 3.072-3.072 7.68-3.072 10.752 0 30.72 27.648 67.584 55.296 119.296 70.656 4.608 1.536 9.216-1.536 9.216-4.608l3.072-12.288c1.536-4.608-1.536-7.68-4.608-9.216-47.616-15.36-81.408-38.4-108.544-64.512-3.072-3.072-3.072-7.68 0-10.752C819.176192 403.456 820.712192 306.688 820.712192 302.08z m136.192-26.112h-12.288c-4.608 0-7.68 3.072-7.68 7.68v41.472c0 4.608-3.072 7.68-7.68 7.68h-27.648c-4.608 0-7.68 3.072-7.68 7.68v12.288c0 4.608 3.072 7.68 7.68 7.68h27.648c4.608 0 7.68 3.072 7.68 7.68v61.44c0 4.608-3.072 7.68-7.68 7.68h-27.648c-4.608 0-7.68 3.072-7.68 7.68v13.824c0 4.608 3.072 7.68 7.68 7.68h27.648c4.608 0 7.68 3.072 7.68 7.68V532.48c0 12.288-4.608 33.792-36.864 35.328-4.608 0-7.68 3.072-7.68 7.68v12.288c0 4.608 4.608 7.68 9.216 7.68 30.72-3.072 64.512-19.968 64.512-62.976V473.6c0-4.608 3.072-7.68 7.68-7.68h24.576c4.608 0 7.68-3.072 7.68-7.68v-12.288c0-4.608-3.072-7.68-7.68-7.68h-24.576c-4.608 0-7.68-3.072-7.68-7.68v-61.44c0-4.608 3.072-7.68 7.68-7.68h24.576c4.608 0 7.68-3.072 7.68-7.68v-12.288c0-4.608-3.072-7.68-7.68-7.68h-24.576c-4.608 0-7.68-3.072-7.68-7.68v-41.472c-1.536-5.632-4.608-8.704-9.216-8.704z m62.976 309.76c0 4.608 3.072 7.68 7.68 7.68H1116.136192c39.936 0 70.656-30.72 70.656-67.584V338.944c0-4.608-3.072-7.68-7.68-7.68h-151.552c-4.608 0-7.68 3.072-7.68 7.68v246.784z m96.256-19.968h-61.44c-4.608 0-7.68-3.072-7.68-7.68V473.6c0-4.608 3.072-7.68 7.68-7.68h96.768c4.608 0 7.68 3.072 7.68 7.68v52.224c0 21.504-18.432 39.936-43.008 39.936z m43.008-199.168v64.512c0 4.608-3.072 7.68-7.68 7.68H1054.696192c-4.608 0-7.68-3.072-7.68-7.68V366.592c0-4.608 3.072-7.68 7.68-7.68h96.768c4.608 0 7.68 3.072 7.68 7.68z m-18.432-90.624h-78.336c-4.608 0-7.68 3.072-7.68 7.68v12.288c0 4.608 3.072 7.68 7.68 7.68h78.336c4.608 0 7.68-3.072 7.68-7.68v-12.288c0-4.608-3.072-7.68-7.68-7.68z m299.008 12.288h-162.304c-4.608 0-7.68 3.072-7.68 7.68v12.288c0 4.608 3.072 7.68 7.68 7.68h162.304c4.608 0 7.68-3.072 7.68-7.68v-12.288c0-4.608-3.072-7.68-7.68-7.68z m-69.12 139.776h113.152c4.608 0 7.68-3.072 7.68-7.68v-12.288c0-4.608-3.072-7.68-7.68-7.68h-251.392c-4.608 0-7.68 3.072-7.68 7.68v12.288c0 4.608 3.072 7.68 7.68 7.68H1310.696192c6.144 0 10.752 7.68 6.144 12.288L1264.616192 533.504c-1.536 1.536-3.072 4.608-3.072 6.144-4.608 12.288-3.072 26.112 6.144 36.864 7.68 12.288 21.504 18.432 36.864 18.432h140.8c6.144 0 12.288-3.072 15.36-9.216 3.072-4.608 3.072-12.288 1.536-16.896l-32.256-64.512c-1.536-4.608-6.144-6.144-10.752-3.072l-10.752 6.144c-4.608 1.536-6.144 6.144-3.072 10.752l19.968 36.864c3.072 4.608-1.536 10.752-7.68 10.752h-113.152c-6.144 0-10.752-3.072-13.824-6.144-1.536-1.536-3.072-6.144-1.536-10.752 0-1.536 0-1.536 1.536-1.536l62.976-110.08c3.072-6.144 9.216-9.216 16.896-9.216z" fill="#2c2c2c" p-id="14193"></path></svg>